<svg width="81" height="81" viewBox="0 0 81 81" fill="none" xmlns="http://www.w3.org/2000/svg">
<rect x="6" y="6" width="69" height="69" rx="34.5" fill="#1A232C" stroke="#1A232C" stroke-width="11"/>
<mask id="mask0_15_53" style="mask-type:alpha" maskUnits="userSpaceOnUse" x="6" y="6" width="69" height="69">
<rect x="8.5" y="8.5" width="64" height="64" rx="32" fill="#1A232C" stroke="#1A232C" stroke-width="5"/>
</mask>
<g mask="url(#mask0_15_53)">
<rect x="-3" y="6" width="88" height="23" fill="#74B3CE"/>
<rect x="-3" y="52" width="88" height="23" fill="#74B3CE"/>
<rect x="-3" y="29" width="88" height="23" fill="#F9F2E0"/>
<path d="M40.5 20L42.404 29.0691C42.6407 29.1134 42.8748 29.1653 43.1059 29.2243L48.345 21.5605L46.607 30.8087C46.7734 30.9222 46.9365 31.0402 47.0962 31.1624L54.9957 26.0043L49.7415 34.051C49.8214 34.1769 49.8988 34.3046 49.9736 34.4339L59.4396 32.655L51.3199 38.2056C51.3345 38.2955 51.348 38.3857 51.3604 38.4762L61 40.5L51.1657 42.5647C51.1573 42.6003 51.1487 42.6359 51.14 42.6714L59.4395 48.345L49.424 46.4628L54.9957 54.9957L46.4628 49.424L48.345 59.4395L42.5939 51.0266L40.5 61L38.4061 51.0266L32.655 59.4395L34.5276 49.4747L34.4926 49.4531L26.0043 54.9957L31.4451 46.6632C31.4068 46.6121 31.3688 46.5606 31.3313 46.5088L21.5604 48.345L29.5961 42.8518C29.5649 42.734 29.5356 42.6155 29.5082 42.4962L20 40.5L29.3205 38.5432C29.3437 38.366 29.371 38.1902 29.4024 38.0158L21.5605 32.655L30.7468 34.3814C30.8601 34.1882 30.979 33.9988 31.1034 33.8134L26.0043 26.0043L33.7378 31.054C33.9396 30.9046 34.1467 30.7619 34.3587 30.6262L32.655 21.5605L37.85 29.1598C38.0994 29.1027 38.3521 29.0539 38.6076 29.0138L40.5 20Z" fill="#F6B40E" stroke="#F6B40E"/>
</g>
</svg>
