<?xml version="1.0" encoding="UTF-8" standalone="no"?><!DOCTYPE svg PUBLIC "-//W3C//DTD SVG 1.1//EN" "http://www.w3.org/Graphics/SVG/1.1/DTD/svg11.dtd"><svg width="100%" height="100%" viewBox="0 0 1069 179" version="1.1" xmlns="http://www.w3.org/2000/svg" xmlns:xlink="http://www.w3.org/1999/xlink" xml:space="preserve" xmlns:serif="http://www.serif.com/" style="fill-rule:evenodd;clip-rule:evenodd;stroke-linejoin:round;stroke-miterlimit:2;"><path d="M24.525,22.875c2.333,0.583 4.229,1.146 5.688,1.688c1.5,0.541 2.958,1.291 4.374,2.25c1.459,0.916 2.521,2.083 3.188,3.5c0.667,1.416 1,3.104 1,5.062c-0,4.167 -1.604,7.417 -4.813,9.75c-3.208,2.292 -7.166,3.438 -11.875,3.438c-5.291,-0.001 -9.52,-1.251 -12.687,-3.751c-3.167,-2.541 -4.75,-6.083 -4.75,-10.625l-0,-1l5.188,0c-0,3.875 1.083,6.834 3.25,8.875c2.208,2.042 5.27,3.063 9.187,3.063c3.25,-0 5.937,-0.792 8.063,-2.375c2.124,-1.625 3.187,-3.917 3.187,-6.875c-0,-1.917 -0.667,-3.479 -2,-4.688c-1.292,-1.25 -2.563,-2.062 -3.813,-2.437c-1.208,-0.417 -3.187,-0.938 -5.937,-1.563c-0.708,-0.166 -1.229,-0.291 -1.563,-0.375c-2.374,-0.541 -4.291,-1.062 -5.749,-1.562c-1.417,-0.5 -2.896,-1.188 -4.438,-2.063c-1.5,-0.916 -2.604,-2.062 -3.312,-3.437c-0.709,-1.417 -1.063,-3.104 -1.063,-5.063c-0,-4 1.583,-7.125 4.75,-9.375c3.208,-2.291 7.083,-3.437 11.625,-3.437c4.5,-0 8.333,1.104 11.5,3.312c3.208,2.209 4.812,5.146 4.812,8.813l0,0.937l-5.124,0c-0,-2.958 -1.084,-5.291 -3.251,-7c-2.125,-1.75 -4.791,-2.625 -8,-2.625c-3.083,0 -5.708,0.792 -7.875,2.375c-2.166,1.542 -3.25,3.688 -3.25,6.438c0,0.917 0.105,1.75 0.313,2.5c0.25,0.708 0.646,1.333 1.187,1.875c0.584,0.542 1.146,1 1.688,1.375c0.542,0.333 1.312,0.667 2.312,1c1,0.292 1.813,0.521 2.438,0.687c0.667,0.167 1.625,0.396 2.875,0.688c1.292,0.25 2.25,0.458 2.875,0.625Zm41.954,25.687c-5.625,0 -9.812,-2.145 -12.562,-6.437l-0,19.187l-4.625,0l-0,-46.062l3.687,-0l0.813,6.125c1.083,-1.792 2.687,-3.354 4.812,-4.688c2.125,-1.375 4.667,-2.062 7.625,-2.062c5,-0 8.959,1.604 11.875,4.812c2.917,3.209 4.375,7.271 4.375,12.188c0,5 -1.458,9.083 -4.375,12.25c-2.916,3.125 -6.791,4.687 -11.625,4.687Zm-0.812,-30.875c-3.625,0 -6.5,1.355 -8.625,4.063c-2.084,2.667 -3.125,5.937 -3.125,9.812c-0,4.042 1.041,7.355 3.125,9.938c2.083,2.583 5,3.875 8.75,3.875c3.75,-0 6.666,-1.292 8.75,-3.875c2.083,-2.625 3.125,-5.938 3.125,-9.938c-0,-3.916 -1.063,-7.208 -3.188,-9.875c-2.125,-2.666 -5.062,-4 -8.812,-4Zm55.358,19.25c-0,3.709 -1.479,6.584 -4.437,8.625c-2.959,2 -6.542,3 -10.75,3c-5.126,0 -9.167,-1.5 -12.126,-4.5c-2.916,-3.041 -4.374,-7.145 -4.374,-12.312c-0,-5.042 1.5,-9.146 4.499,-12.313c3.001,-3.208 6.959,-4.812 11.876,-4.812c4.875,-0 8.729,1.396 11.562,4.187c2.833,2.75 4.25,6.542 4.25,11.375c0,0.25 -0.042,1.125 -0.125,2.625l-27.25,0c0.167,3.792 1.25,6.875 3.25,9.25c2.042,2.375 4.854,3.563 8.438,3.563c3.041,-0 5.541,-0.75 7.499,-2.25c1.959,-1.5 2.938,-3.646 2.938,-6.438l4.75,0Zm-15.312,-19.375c-3.417,0 -6.125,1.167 -8.126,3.5c-1.999,2.334 -3.125,5.313 -3.374,8.938l22.625,-0c-0,-3.833 -0.959,-6.854 -2.875,-9.063c-1.875,-2.25 -4.625,-3.375 -8.25,-3.375Zm48.875,30.375l-1.063,-5.937c-0.958,1.958 -2.563,3.542 -4.813,4.75c-2.208,1.208 -4.77,1.812 -7.687,1.812c-3.75,0 -6.75,-0.791 -9,-2.375c-2.25,-1.625 -3.375,-4.02 -3.375,-7.187c0,-2.917 1.083,-5.188 3.25,-6.813c1.458,-1.25 3.271,-2.104 5.438,-2.562c2.166,-0.5 5.25,-0.75 9.25,-0.75c2.708,-0 5,0.062 6.874,0.187l0,-2.937c0,-2.75 -0.833,-4.854 -2.499,-6.313c-1.667,-1.5 -3.917,-2.25 -6.751,-2.25c-2.833,0 -5.104,0.688 -6.812,2.063c-1.667,1.333 -2.5,3.333 -2.5,6l-4.562,-0l-0,-0.688c-0,-3.166 1.291,-5.666 3.875,-7.5c2.625,-1.875 5.958,-2.812 9.999,-2.812c4.042,-0 7.376,1.021 10.001,3.062c2.624,2.042 3.937,4.938 3.937,8.688l-0,21.562l-3.562,0Zm-21.188,-9.125c-0,2.209 0.771,3.875 2.313,5c1.541,1.084 3.645,1.625 6.312,1.625c3.25,0 5.958,-1.02 8.125,-3.062c2.208,-2.083 3.312,-4.646 3.312,-7.688l0,-2.875c-0.791,-0.041 -2.187,-0.062 -4.187,-0.062c-3.583,-0 -6.5,0.167 -8.75,0.5c-2.25,0.333 -3.979,1.042 -5.187,2.125c-1.292,1.167 -1.938,2.646 -1.938,4.437Zm61.692,9.125l-12.625,-17.875l-8.063,7.125l0,10.75l-4.625,0l0,-47.937l4.625,-0l0,33.062l20.188,-17.812l4.562,-0l-13.187,11.625l14.687,21.062l-5.562,0Z" style="fill:#1a232c;fill-rule:nonzero;"/><path d="M0,156.271l11.1,-0l6.1,-17.6l29.6,-0l5.8,17.6l19.5,-0l-25.1,-72.7l-21.8,-0l-25.2,72.7Zm20.6,-27.4l11.8,-34l11.2,34l-23,-0Zm96.667,-25.9c-1.7,-0.5 -4.1,-0.8 -6.6,-0.8c-6.5,-0 -13.2,2.7 -15.5,10.7l-1.6,-9.7l-14.6,-0l-0,53.1l16.2,-0l-0,-26.2c-0,-5.4 1.4,-9 3.7,-11.4c2.9,-2.9 7.2,-3.9 12,-3.9c2.2,-0 4.5,0.3 6.4,0.8l-0,-12.6Zm34.754,75.7c17.8,-0 29.4,-8.2 29.4,-26l-0,-49.5l-14.6,-0l-1.6,7.4c-3.3,-5.5 -10,-8.4 -17.7,-8.4c-15.1,-0 -24.3,11.8 -24.3,26.3c-0,14.9 9.3,26.2 24.8,26.2c8.7,-0 14.2,-3.1 17.2,-8.2l-0,7.7c-0,10.2 -2.5,16.5 -12.7,16.5c-7.2,-0 -11.1,-4.2 -10.9,-11.4l-16.2,-0l-0,0.8c-0,12.1 10.4,18.6 26.6,18.6Zm0.6,-33.6c-9,-0 -12.7,-8.4 -12.7,-16.8c-0,-8.6 3.5,-16.8 12.6,-16.8c9.2,-0 12.7,8.2 12.7,16.8c-0,8.6 -3.4,16.8 -12.6,16.8Zm93.454,-5.8l-16.2,-0c-0,6.3 -2.6,10.1 -8.9,10.1c-8.1,-0 -11.6,-8.1 -12.3,-16.4l37.9,-0c0.1,-1.6 0.2,-3.2 0.2,-4.7c0,-16.5 -10.4,-26.1 -26.9,-26.1c-17,-0 -28,10.6 -28,27.6c0,17.3 11.8,27.5 29.1,27.5c13,-0 25.1,-5 25.1,-18Zm-26.2,-29.2c8.3,-0 11.1,6.8 11.1,15.1l-22.2,-0c0.7,-7.8 3.4,-15.1 11.1,-15.1Zm53.317,17.1c-0,-7.7 4.1,-14.2 11.8,-14.2c8.1,-0 11.9,5.6 11.9,13.6l-0,29.7l16.2,-0l-0,-31.1c-0,-14.5 -8.4,-23 -23,-23c-7.8,-0 -13.6,3.7 -16.9,9.2l-1.6,-8.2l-14.6,-0l-0,53.1l16.2,-0l-0,-29.1Zm85.533,27.5l0,-7.8c-2.4,0.6 -5.5,0.8 -7.3,0.6c-5.6,-0.6 -5.9,-3.8 -5.9,-9.5l-0,-27l12.6,-0l-0,-7.8l-12.6,-0l-0,-13.4l-16.2,3.9l0,9.5l-7.4,-0l0,7.8l7.4,-0l0,28.2c0,12.8 5.4,17.7 18.2,17.7c4.3,-0 8.5,-0.9 11.2,-2.2Zm28.7,-67.9c0,-5.1 -4.3,-9.2 -9.5,-9.2c-5.1,-0 -9.3,4.1 -9.3,9.2c0,5.2 4.2,9.3 9.3,9.3c5.2,-0 9.5,-4.1 9.5,-9.3Zm-17.5,69.5l16.2,-0l0,-53.1l-16.2,-0l0,53.1Zm47.604,-29.1c0,-7.7 4.1,-14.2 11.8,-14.2c8.1,-0 11.9,5.6 11.9,13.6l0,29.7l16.2,-0l0,-31.1c0,-14.5 -8.4,-23 -23,-23c-7.8,-0 -13.6,3.7 -16.9,9.2l-1.6,-8.2l-14.6,-0l0,53.1l16.2,-0l0,-29.1Zm72.629,-40.4c0,-5.1 -4.3,-9.2 -9.5,-9.2c-5.1,-0 -9.3,4.1 -9.3,9.2c0,5.2 4.2,9.3 9.3,9.3c5.2,-0 9.5,-4.1 9.5,-9.3Zm-17.5,69.5l16.2,-0l0,-53.1l-16.2,-0l0,53.1Zm67.505,-0l13.5,-0l-0,-33.9c-0,-13.9 -10.8,-20.2 -24.9,-20.2c-16.5,-0 -24.5,6.4 -24.5,16l-0,1.1l15.8,-0c-0,-5.8 2.8,-9.1 8.7,-9.1c6.1,-0 8.699,4.2 8.699,10.2l0,4.6c-2.199,-0.1 -4.499,-0.2 -6.799,-0.2c-8.8,-0 -15.4,0.7 -20.8,3.5c-5.3,2.8 -8.7,7.3 -8.7,13.7c-0,10.4 7.8,15.3 18.5,15.3c9.5,-0 15.5,-3.4 18,-8.2l2.5,7.2Zm-22.4,-15.2c-0,-2.6 1.1,-4.5 3,-5.9c3,-2 8.3,-2.7 14.1,-2.7l2.599,-0l0,2.9c0,7.8 -3.799,13 -11.3,13c-5.699,-0 -8.399,-3.1 -8.399,-7.3Zm65.487,-13.9c0,-7.7 4.1,-14.2 11.8,-14.2c8.1,-0 11.9,5.6 11.9,13.6l0,29.7l16.2,-0l0,-31.1c0,-14.5 -8.4,-23 -23,-23c-7.8,-0 -13.6,3.7 -16.9,9.2l-1.6,-8.2l-14.6,-0l0,53.1l16.2,-0l0,-29.1Z" style="fill:#1a232c;fill-rule:nonzero;"/><path d="M693.467,116.171c3.733,0.933 6.766,1.833 9.1,2.7c2.4,0.867 4.733,2.067 7,3.6c2.333,1.466 4.033,3.333 5.1,5.6c1.066,2.267 1.6,4.966 1.6,8.1c-0,6.667 -2.567,11.867 -7.7,15.6c-5.134,3.667 -11.467,5.5 -19,5.5c-8.467,-0 -15.234,-2 -20.3,-6c-5.067,-4.067 -7.6,-9.733 -7.6,-17l-0,-1.6l8.3,-0c-0,6.2 1.733,10.933 5.2,14.2c3.533,3.267 8.433,4.9 14.7,4.9c5.2,-0 9.5,-1.267 12.9,-3.8c3.4,-2.6 5.1,-6.267 5.1,-11c-0,-3.067 -1.067,-5.567 -3.2,-7.5c-2.067,-2 -4.1,-3.3 -6.1,-3.9c-1.934,-0.667 -5.1,-1.5 -9.5,-2.5c-1.134,-0.267 -1.967,-0.467 -2.5,-0.6c-3.8,-0.867 -6.867,-1.7 -9.2,-2.5c-2.267,-0.8 -4.634,-1.9 -7.1,-3.3c-2.4,-1.467 -4.167,-3.3 -5.3,-5.5c-1.134,-2.267 -1.7,-4.967 -1.7,-8.1c-0,-6.4 2.533,-11.4 7.6,-15c5.133,-3.667 11.333,-5.5 18.6,-5.5c7.2,-0 13.333,1.766 18.4,5.3c5.133,3.533 7.7,8.233 7.7,14.1l-0,1.5l-8.2,-0c-0,-4.733 -1.734,-8.467 -5.2,-11.2c-3.4,-2.8 -7.667,-4.2 -12.8,-4.2c-4.934,-0 -9.134,1.267 -12.6,3.8c-3.467,2.467 -5.2,5.9 -5.2,10.3c-0,1.467 0.166,2.8 0.5,4c0.4,1.133 1.033,2.133 1.9,3c0.933,0.867 1.833,1.6 2.7,2.2c0.866,0.533 2.1,1.067 3.7,1.6c1.6,0.467 2.9,0.833 3.9,1.1c1.066,0.267 2.6,0.633 4.6,1.1c2.066,0.4 3.6,0.733 4.6,1Zm67.125,41.1c-9,-0 -15.7,-3.433 -20.1,-10.3l-0,30.7l-7.4,-0l-0,-73.7l5.9,-0l1.3,9.8c1.733,-2.867 4.3,-5.367 7.7,-7.5c3.4,-2.2 7.466,-3.3 12.2,-3.3c8,-0 14.333,2.567 19,7.7c4.666,5.133 7,11.633 7,19.5c-0,8 -2.334,14.533 -7,19.6c-4.667,5 -10.867,7.5 -18.6,7.5Zm-1.3,-49.4c-5.8,-0 -10.4,2.167 -13.8,6.5c-3.334,4.267 -5,9.5 -5,15.7c-0,6.467 1.666,11.767 5,15.9c3.333,4.133 8,6.2 14,6.2c6,-0 10.666,-2.067 14,-6.2c3.333,-4.2 5,-9.5 5,-15.9c-0,-6.267 -1.7,-11.533 -5.1,-15.8c-3.4,-4.267 -8.1,-6.4 -14.1,-6.4Zm79.871,48.4l-1.7,-9.5c-1.534,3.133 -4.1,5.667 -7.7,7.6c-3.534,1.933 -7.634,2.9 -12.3,2.9c-6,-0 -10.8,-1.267 -14.4,-3.8c-3.6,-2.6 -5.4,-6.433 -5.4,-11.5c-0,-4.667 1.733,-8.3 5.2,-10.9c2.333,-2 5.233,-3.367 8.699,-4.1c3.467,-0.8 8.401,-1.2 14.801,-1.2c4.333,-0 8,0.1 10.999,0.3l0,-4.7c0,-4.4 -1.333,-7.767 -3.999,-10.1c-2.667,-2.4 -6.267,-3.6 -10.8,-3.6c-4.534,-0 -8.167,1.1 -10.901,3.3c-2.666,2.133 -4,5.333 -4,9.6l-7.3,-0l0,-1.1c0,-5.067 2.067,-9.067 6.2,-12c4.201,-3 9.534,-4.5 16,-4.5c6.467,-0 11.8,1.633 16,4.9c4.2,3.267 6.3,7.9 6.3,13.9l0,34.5l-5.7,-0Zm-33.9,-14.6c0,3.533 1.234,6.2 3.7,8c2.467,1.733 5.834,2.6 10.1,2.6c5.2,-0 9.534,-1.633 13,-4.9c3.534,-3.333 5.3,-7.433 5.3,-12.3l0,-4.6c-1.266,-0.067 -3.5,-0.1 -6.7,-0.1c-5.733,-0 -10.4,0.267 -14,0.8c-3.6,0.533 -6.366,1.667 -8.299,3.4c-2.067,1.867 -3.101,4.233 -3.101,7.1Zm65.113,-14.3l-0,28.9l-7.4,-0l-0,-52.3l5.9,-0l1.5,9.6c1.667,-3.067 4.133,-5.6 7.4,-7.6c3.333,-2 7.133,-3 11.4,-3c7.267,-0 12.967,2.167 17.1,6.5c4.133,4.333 6.2,10.2 6.2,17.6l-0,29.2l-7.4,-0l0,-28.9c0,-5.733 -1.5,-10.333 -4.5,-13.8c-2.933,-3.533 -7.1,-5.3 -12.5,-5.3c-5.267,-0 -9.533,1.833 -12.8,5.5c-3.267,3.667 -4.9,8.2 -4.9,13.6Zm71.875,-42.7c-0,1.6 -0.567,2.933 -1.7,4c-1.067,1.067 -2.367,1.6 -3.9,1.6c-1.533,-0 -2.833,-0.533 -3.9,-1.6c-1.067,-1.067 -1.6,-2.4 -1.6,-4c-0,-1.533 0.533,-2.8 1.6,-3.8c1.067,-1.067 2.367,-1.6 3.9,-1.6c1.533,-0 2.833,0.533 3.9,1.6c1.133,1 1.7,2.267 1.7,3.8Zm-9.3,71.6l-0,-52.3l7.5,-0l-0,52.3l-7.5,-0Zm48.075,-3.6c4.133,-0 7.6,-0.833 10.4,-2.5c2.8,-1.733 4.2,-4.367 4.2,-7.9c-0,-1 -0.167,-1.9 -0.5,-2.7c-0.267,-0.8 -0.8,-1.5 -1.6,-2.1c-0.8,-0.6 -1.5,-1.1 -2.1,-1.5c-0.6,-0.4 -1.6,-0.767 -3,-1.1c-1.333,-0.4 -2.3,-0.667 -2.9,-0.8c-0.533,-0.2 -1.667,-0.433 -3.4,-0.7c-1.667,-0.333 -2.667,-0.533 -3,-0.6c-2.533,-0.533 -4.533,-0.967 -6,-1.3c-1.467,-0.4 -3.233,-0.967 -5.3,-1.7c-2,-0.8 -3.567,-1.667 -4.7,-2.6c-1.067,-0.933 -2,-2.167 -2.8,-3.7c-0.8,-1.6 -1.2,-3.4 -1.2,-5.4c-0,-4.733 2.133,-8.433 6.4,-11.1c4.267,-2.667 9.167,-4 14.7,-4c6.067,-0 11.3,1.367 15.7,4.1c4.4,2.667 6.6,6.4 6.6,11.2l-0,1l-7.4,-0c-0,-3.867 -1.433,-6.8 -4.3,-8.8c-2.8,-2 -6.4,-3 -10.8,-3c-3.533,-0 -6.667,0.9 -9.4,2.7c-2.733,1.733 -4.1,4.133 -4.1,7.2c-0,0.733 0.067,1.433 0.2,2.1c0.133,0.6 0.4,1.167 0.8,1.7c0.4,0.467 0.767,0.9 1.1,1.3c0.333,0.4 0.867,0.767 1.6,1.1c0.8,0.333 1.4,0.633 1.8,0.9c0.467,0.2 1.2,0.433 2.2,0.7c1.067,0.267 1.833,0.467 2.3,0.6c0.533,0.067 1.433,0.233 2.7,0.5c1.267,0.267 2.133,0.467 2.6,0.6c0.6,0.133 1.667,0.367 3.2,0.7c1.6,0.267 2.833,0.5 3.7,0.7c0.867,0.2 2,0.5 3.4,0.9c1.467,0.4 2.633,0.833 3.5,1.3c0.867,0.4 1.833,0.967 2.9,1.7c1.067,0.733 1.9,1.533 2.5,2.4c0.6,0.8 1.1,1.8 1.5,3c0.4,1.2 0.596,2.533 0.596,4c-0,5.067 -2.196,8.967 -6.596,11.7c-4.4,2.667 -9.6,4 -15.6,4c-6.467,-0 -11.867,-1.5 -16.2,-4.5c-4.333,-3 -6.5,-7.267 -6.5,-12.8l-0,-1.1l7.4,-0c-0,4.467 1.4,7.9 4.2,10.3c2.8,2.333 6.533,3.5 11.2,3.5Zm45.708,-25.7l0,29.3l-7.4,-0l0,-76.7l7.4,-0l0,34c1.534,-3.067 4.034,-5.6 7.5,-7.6c3.467,-2 7.234,-3 11.3,-3c7.134,-0 12.767,2.1 16.9,6.3c4.134,4.133 6.2,9.8 6.2,17l0,30l-7.4,-0l0,-29.6c0,-5.667 -1.5,-10.133 -4.5,-13.4c-3,-3.333 -7.233,-5 -12.7,-5c-4.8,-0 -8.9,1.8 -12.3,5.4c-3.333,3.6 -5,8.033 -5,13.3Z" style="fill:#1a232c;fill-rule:nonzero;"/></svg>