<svg width="359" height="81" viewBox="0 0 359 81" fill="none" xmlns="http://www.w3.org/2000/svg">
<rect x="6" y="6" width="69" height="69" rx="34.5" fill="#1A232C" stroke="#1A232C" stroke-width="11"/>
<mask id="mask0_17_62" style="mask-type:alpha" maskUnits="userSpaceOnUse" x="6" y="6" width="69" height="69">
<rect x="8.5" y="8.5" width="64" height="64" rx="32" fill="#1A232C" stroke="#1A232C" stroke-width="5"/>
</mask>
<g mask="url(#mask0_17_62)">
<rect x="-3" y="6" width="88" height="23" fill="#74B3CE"/>
<rect x="-3" y="52" width="88" height="23" fill="#74B3CE"/>
<rect x="-3" y="29" width="88" height="23" fill="#F9F2E0"/>
<path d="M40.5 20L42.404 29.0691C42.6407 29.1134 42.8748 29.1653 43.1059 29.2243L48.345 21.5605L46.607 30.8087C46.7734 30.9222 46.9365 31.0402 47.0962 31.1624L54.9957 26.0043L49.7415 34.051C49.8213 34.1769 49.8988 34.3046 49.9736 34.4339L59.4396 32.655L51.3199 38.2056C51.3345 38.2955 51.348 38.3857 51.3604 38.4762L61 40.5L51.1657 42.5647C51.1573 42.6003 51.1487 42.6359 51.14 42.6714L59.4395 48.345L49.424 46.4628L54.9957 54.9957L46.4628 49.424L48.345 59.4395L42.5939 51.0266L40.5 61L38.4061 51.0266L32.655 59.4395L34.5276 49.4747L34.4926 49.4531L26.0043 54.9957L31.4451 46.6632C31.4068 46.6121 31.3688 46.5606 31.3313 46.5088L21.5604 48.345L29.5961 42.8518C29.5649 42.734 29.5356 42.6155 29.5082 42.4962L20 40.5L29.3205 38.5432C29.3437 38.366 29.371 38.1902 29.4024 38.0158L21.5605 32.655L30.7468 34.3814C30.8601 34.1882 30.979 33.9988 31.1034 33.8134L26.0043 26.0043L33.7378 31.054C33.9396 30.9046 34.1467 30.7619 34.3587 30.6262L32.655 21.5605L37.85 29.1598C38.0994 29.1027 38.3521 29.0539 38.6076 29.0138L40.5 20Z" fill="#F6B40E" stroke="#F6B40E"/>
</g>
<path d="M105.91 25.985C106.47 26.125 106.925 26.26 107.275 26.39C107.635 26.52 107.985 26.7 108.325 26.93C108.675 27.15 108.93 27.43 109.09 27.77C109.25 28.11 109.33 28.515 109.33 28.985C109.33 29.985 108.945 30.765 108.175 31.325C107.405 31.875 106.455 32.15 105.325 32.15C104.055 32.15 103.04 31.85 102.28 31.25C101.52 30.64 101.14 29.79 101.14 28.7V28.46H102.385C102.385 29.39 102.645 30.1 103.165 30.59C103.695 31.08 104.43 31.325 105.37 31.325C106.15 31.325 106.795 31.135 107.305 30.755C107.815 30.365 108.07 29.815 108.07 29.105C108.07 28.645 107.91 28.27 107.59 27.98C107.28 27.68 106.975 27.485 106.675 27.395C106.385 27.295 105.91 27.17 105.25 27.02C105.08 26.98 104.955 26.95 104.875 26.93C104.305 26.8 103.845 26.675 103.495 26.555C103.155 26.435 102.8 26.27 102.43 26.06C102.07 25.84 101.805 25.565 101.635 25.235C101.465 24.895 101.38 24.49 101.38 24.02C101.38 23.06 101.76 22.31 102.52 21.77C103.29 21.22 104.22 20.945 105.31 20.945C106.39 20.945 107.31 21.21 108.07 21.74C108.84 22.27 109.225 22.975 109.225 23.855V24.08H107.995C107.995 23.37 107.735 22.81 107.215 22.4C106.705 21.98 106.065 21.77 105.295 21.77C104.555 21.77 103.925 21.96 103.405 22.34C102.885 22.71 102.625 23.225 102.625 23.885C102.625 24.105 102.65 24.305 102.7 24.485C102.76 24.655 102.855 24.805 102.985 24.935C103.125 25.065 103.26 25.175 103.39 25.265C103.52 25.345 103.705 25.425 103.945 25.505C104.185 25.575 104.38 25.63 104.53 25.67C104.69 25.71 104.92 25.765 105.22 25.835C105.53 25.895 105.76 25.945 105.91 25.985ZM115.979 32.15C114.629 32.15 113.624 31.635 112.964 30.605V35.21H111.854V24.155H112.739L112.934 25.625C113.194 25.195 113.579 24.82 114.089 24.5C114.599 24.17 115.209 24.005 115.919 24.005C117.119 24.005 118.069 24.39 118.769 25.16C119.469 25.93 119.819 26.905 119.819 28.085C119.819 29.285 119.469 30.265 118.769 31.025C118.069 31.775 117.139 32.15 115.979 32.15ZM115.784 24.74C114.914 24.74 114.224 25.065 113.714 25.715C113.214 26.355 112.964 27.14 112.964 28.07C112.964 29.04 113.214 29.835 113.714 30.455C114.214 31.075 114.914 31.385 115.814 31.385C116.714 31.385 117.414 31.075 117.914 30.455C118.414 29.825 118.664 29.03 118.664 28.07C118.664 27.13 118.409 26.34 117.899 25.7C117.389 25.06 116.684 24.74 115.784 24.74ZM129.07 29.36C129.07 30.25 128.715 30.94 128.005 31.43C127.295 31.91 126.435 32.15 125.425 32.15C124.195 32.15 123.225 31.79 122.515 31.07C121.815 30.34 121.465 29.355 121.465 28.115C121.465 26.905 121.825 25.92 122.545 25.16C123.265 24.39 124.215 24.005 125.395 24.005C126.565 24.005 127.49 24.34 128.17 25.01C128.85 25.67 129.19 26.58 129.19 27.74C129.19 27.8 129.18 28.01 129.16 28.37H122.62C122.66 29.28 122.92 30.02 123.4 30.59C123.89 31.16 124.565 31.445 125.425 31.445C126.155 31.445 126.755 31.265 127.225 30.905C127.695 30.545 127.93 30.03 127.93 29.36H129.07ZM125.395 24.71C124.575 24.71 123.925 24.99 123.445 25.55C122.965 26.11 122.695 26.825 122.635 27.695H128.065C128.065 26.775 127.835 26.05 127.375 25.52C126.925 24.98 126.265 24.71 125.395 24.71ZM137.125 32L136.87 30.575C136.64 31.045 136.255 31.425 135.715 31.715C135.185 32.005 134.57 32.15 133.87 32.15C132.97 32.15 132.25 31.96 131.71 31.58C131.17 31.19 130.9 30.615 130.9 29.855C130.9 29.155 131.16 28.61 131.68 28.22C132.03 27.92 132.465 27.715 132.985 27.605C133.505 27.485 134.245 27.425 135.205 27.425C135.855 27.425 136.405 27.44 136.855 27.47V26.765C136.855 26.105 136.655 25.6 136.255 25.25C135.855 24.89 135.315 24.71 134.635 24.71C133.955 24.71 133.41 24.875 133 25.205C132.6 25.525 132.4 26.005 132.4 26.645H131.305V26.48C131.305 25.72 131.615 25.12 132.235 24.68C132.865 24.23 133.665 24.005 134.635 24.005C135.605 24.005 136.405 24.25 137.035 24.74C137.665 25.23 137.98 25.925 137.98 26.825V32H137.125ZM132.04 29.81C132.04 30.34 132.225 30.74 132.595 31.01C132.965 31.27 133.47 31.4 134.11 31.4C134.89 31.4 135.54 31.155 136.06 30.665C136.59 30.165 136.855 29.55 136.855 28.82V28.13C136.665 28.12 136.33 28.115 135.85 28.115C134.99 28.115 134.29 28.155 133.75 28.235C133.21 28.315 132.795 28.485 132.505 28.745C132.195 29.025 132.04 29.38 132.04 29.81ZM146.846 32L143.816 27.71L141.881 29.42V32H140.771V20.495H141.881V28.43L146.726 24.155H147.821L144.656 26.945L148.181 32H146.846Z" fill="#1A232C"/>
<path d="M100.024 58H102.688L104.152 53.776H111.256L112.648 58H117.328L111.304 40.552H106.072L100.024 58ZM104.968 51.424L107.8 43.264L110.488 51.424H104.968ZM128.168 45.208C127.76 45.088 127.184 45.016 126.584 45.016C125.024 45.016 123.416 45.664 122.864 47.584L122.48 45.256H118.976V58H122.864V51.712C122.864 50.416 123.2 49.552 123.752 48.976C124.448 48.28 125.48 48.04 126.632 48.04C127.16 48.04 127.712 48.112 128.168 48.232V45.208ZM136.509 63.376C140.781 63.376 143.565 61.408 143.565 57.136V45.256H140.061L139.677 47.032C138.885 45.712 137.277 45.016 135.429 45.016C131.805 45.016 129.597 47.848 129.597 51.328C129.597 54.904 131.829 57.616 135.549 57.616C137.637 57.616 138.957 56.872 139.677 55.648V57.496C139.677 59.944 139.077 61.456 136.629 61.456C134.901 61.456 133.965 60.448 134.013 58.72H130.125V58.912C130.125 61.816 132.621 63.376 136.509 63.376ZM136.653 55.312C134.493 55.312 133.605 53.296 133.605 51.28C133.605 49.216 134.445 47.248 136.629 47.248C138.837 47.248 139.677 49.216 139.677 51.28C139.677 53.344 138.861 55.312 136.653 55.312ZM159.082 53.92H155.194C155.194 55.432 154.57 56.344 153.058 56.344C151.114 56.344 150.274 54.4 150.106 52.408H159.202C159.226 52.024 159.25 51.64 159.25 51.28C159.25 47.32 156.754 45.016 152.794 45.016C148.714 45.016 146.074 47.56 146.074 51.64C146.074 55.792 148.906 58.24 153.058 58.24C156.178 58.24 159.082 57.04 159.082 53.92ZM152.794 46.912C154.786 46.912 155.458 48.544 155.458 50.536H150.13C150.298 48.664 150.946 46.912 152.794 46.912ZM165.59 51.016C165.59 49.168 166.574 47.608 168.422 47.608C170.366 47.608 171.278 48.952 171.278 50.872V58H175.166V50.536C175.166 47.056 173.15 45.016 169.646 45.016C167.774 45.016 166.382 45.904 165.59 47.224L165.206 45.256H161.702V58H165.59V51.016ZM186.118 57.616V55.744C185.542 55.888 184.798 55.936 184.366 55.888C183.022 55.744 182.95 54.976 182.95 53.608V47.128H185.974V45.256H182.95V42.04L179.062 42.976V45.256H177.286V47.128H179.062V53.896C179.062 56.968 180.358 58.144 183.43 58.144C184.462 58.144 185.47 57.928 186.118 57.616ZM193.006 41.32C193.006 40.096 191.974 39.112 190.726 39.112C189.502 39.112 188.494 40.096 188.494 41.32C188.494 42.568 189.502 43.552 190.726 43.552C191.974 43.552 193.006 42.568 193.006 41.32ZM188.806 58H192.694V45.256H188.806V58ZM200.231 51.016C200.231 49.168 201.215 47.608 203.063 47.608C205.007 47.608 205.919 48.952 205.919 50.872V58H209.807V50.536C209.807 47.056 207.791 45.016 204.287 45.016C202.415 45.016 201.023 45.904 200.231 47.224L199.847 45.256H196.343V58H200.231V51.016ZM217.662 41.32C217.662 40.096 216.63 39.112 215.382 39.112C214.158 39.112 213.15 40.096 213.15 41.32C213.15 42.568 214.158 43.552 215.382 43.552C216.63 43.552 217.662 42.568 217.662 41.32ZM213.462 58H217.35V45.256H213.462V58ZM229.663 58H232.903V49.864C232.903 46.528 230.311 45.016 226.927 45.016C222.967 45.016 221.047 46.552 221.047 48.856V49.12H224.839C224.839 47.728 225.511 46.936 226.927 46.936C228.391 46.936 229.015 47.944 229.015 49.384V50.488C228.487 50.464 227.935 50.44 227.383 50.44C225.271 50.44 223.687 50.608 222.391 51.28C221.119 51.952 220.303 53.032 220.303 54.568C220.303 57.064 222.175 58.24 224.743 58.24C227.023 58.24 228.463 57.424 229.063 56.272L229.663 58ZM224.287 54.352C224.287 53.728 224.551 53.272 225.007 52.936C225.727 52.456 226.999 52.288 228.391 52.288H229.015V52.984C229.015 54.856 228.103 56.104 226.303 56.104C224.935 56.104 224.287 55.36 224.287 54.352ZM240.004 51.016C240.004 49.168 240.988 47.608 242.836 47.608C244.78 47.608 245.692 48.952 245.692 50.872V58H249.58V50.536C249.58 47.056 247.564 45.016 244.06 45.016C242.188 45.016 240.796 45.904 240.004 47.224L239.62 45.256H236.116V58H240.004V51.016Z" fill="#1A232C"/>
<path d="M266.456 48.376C267.352 48.6 268.08 48.816 268.64 49.024C269.216 49.232 269.776 49.52 270.32 49.888C270.88 50.24 271.288 50.688 271.544 51.232C271.8 51.776 271.928 52.424 271.928 53.176C271.928 54.776 271.312 56.024 270.08 56.92C268.848 57.8 267.328 58.24 265.52 58.24C263.488 58.24 261.864 57.76 260.648 56.8C259.432 55.824 258.824 54.464 258.824 52.72V52.336H260.816C260.816 53.824 261.232 54.96 262.064 55.744C262.912 56.528 264.088 56.92 265.592 56.92C266.84 56.92 267.872 56.616 268.688 56.008C269.504 55.384 269.912 54.504 269.912 53.368C269.912 52.632 269.656 52.032 269.144 51.568C268.648 51.088 268.16 50.776 267.68 50.632C267.216 50.472 266.456 50.272 265.4 50.032C265.128 49.968 264.928 49.92 264.8 49.888C263.888 49.68 263.152 49.48 262.592 49.288C262.048 49.096 261.48 48.832 260.888 48.496C260.312 48.144 259.888 47.704 259.616 47.176C259.344 46.632 259.208 45.984 259.208 45.232C259.208 43.696 259.816 42.496 261.032 41.632C262.264 40.752 263.752 40.312 265.496 40.312C267.224 40.312 268.696 40.736 269.912 41.584C271.144 42.432 271.76 43.56 271.76 44.968V45.328H269.792C269.792 44.192 269.376 43.296 268.544 42.64C267.728 41.968 266.704 41.632 265.472 41.632C264.288 41.632 263.28 41.936 262.448 42.544C261.616 43.136 261.2 43.96 261.2 45.016C261.2 45.368 261.24 45.688 261.32 45.976C261.416 46.248 261.568 46.488 261.776 46.696C262 46.904 262.216 47.08 262.424 47.224C262.632 47.352 262.928 47.48 263.312 47.608C263.696 47.72 264.008 47.808 264.248 47.872C264.504 47.936 264.872 48.024 265.352 48.136C265.848 48.232 266.216 48.312 266.456 48.376ZM282.566 58.24C280.406 58.24 278.798 57.416 277.742 55.768V63.136H275.966V45.448H277.382L277.694 47.8C278.11 47.112 278.726 46.512 279.542 46C280.358 45.472 281.334 45.208 282.47 45.208C284.39 45.208 285.91 45.824 287.03 47.056C288.15 48.288 288.71 49.848 288.71 51.736C288.71 53.656 288.15 55.224 287.03 56.44C285.91 57.64 284.422 58.24 282.566 58.24ZM282.254 46.384C280.862 46.384 279.758 46.904 278.942 47.944C278.142 48.968 277.742 50.224 277.742 51.712C277.742 53.264 278.142 54.536 278.942 55.528C279.742 56.52 280.862 57.016 282.302 57.016C283.742 57.016 284.862 56.52 285.662 55.528C286.462 54.52 286.862 53.248 286.862 51.712C286.862 50.208 286.454 48.944 285.638 47.92C284.822 46.896 283.694 46.384 282.254 46.384ZM301.423 58L301.015 55.72C300.647 56.472 300.031 57.08 299.167 57.544C298.319 58.008 297.335 58.24 296.215 58.24C294.775 58.24 293.623 57.936 292.759 57.328C291.895 56.704 291.463 55.784 291.463 54.568C291.463 53.448 291.879 52.576 292.711 51.952C293.271 51.472 293.967 51.144 294.799 50.968C295.631 50.776 296.815 50.68 298.351 50.68C299.391 50.68 300.271 50.704 300.991 50.752V49.624C300.991 48.568 300.671 47.76 300.031 47.2C299.391 46.624 298.527 46.336 297.439 46.336C296.351 46.336 295.479 46.6 294.823 47.128C294.183 47.64 293.863 48.408 293.863 49.432H292.111V49.168C292.111 47.952 292.607 46.992 293.599 46.288C294.607 45.568 295.887 45.208 297.439 45.208C298.991 45.208 300.271 45.6 301.279 46.384C302.287 47.168 302.791 48.28 302.791 49.72V58H301.423ZM293.287 54.496C293.287 55.344 293.583 55.984 294.175 56.416C294.767 56.832 295.575 57.04 296.599 57.04C297.847 57.04 298.887 56.648 299.719 55.864C300.567 55.064 300.991 54.08 300.991 52.912V51.808C300.687 51.792 300.151 51.784 299.383 51.784C298.007 51.784 296.887 51.848 296.023 51.976C295.159 52.104 294.495 52.376 294.031 52.792C293.535 53.24 293.287 53.808 293.287 54.496ZM308.914 51.064V58H307.138V45.448H308.554L308.914 47.752C309.314 47.016 309.906 46.408 310.69 45.928C311.49 45.448 312.402 45.208 313.426 45.208C315.17 45.208 316.538 45.728 317.53 46.768C318.522 47.808 319.018 49.216 319.018 50.992V58H317.242V51.064C317.242 49.688 316.882 48.584 316.162 47.752C315.458 46.904 314.458 46.48 313.162 46.48C311.898 46.48 310.874 46.92 310.09 47.8C309.306 48.68 308.914 49.768 308.914 51.064ZM326.164 40.816C326.164 41.2 326.028 41.52 325.756 41.776C325.5 42.032 325.188 42.16 324.82 42.16C324.452 42.16 324.14 42.032 323.884 41.776C323.628 41.52 323.5 41.2 323.5 40.816C323.5 40.448 323.628 40.144 323.884 39.904C324.14 39.648 324.452 39.52 324.82 39.52C325.188 39.52 325.5 39.648 325.756 39.904C326.028 40.144 326.164 40.448 326.164 40.816ZM323.932 58V45.448H325.732V58H323.932ZM335.47 57.136C336.462 57.136 337.294 56.936 337.966 56.536C338.638 56.12 338.974 55.488 338.974 54.64C338.974 54.4 338.934 54.184 338.854 53.992C338.79 53.8 338.662 53.632 338.47 53.488C338.278 53.344 338.11 53.224 337.966 53.128C337.822 53.032 337.582 52.944 337.246 52.864C336.926 52.768 336.694 52.704 336.55 52.672C336.422 52.624 336.15 52.568 335.734 52.504C335.334 52.424 335.094 52.376 335.014 52.36C334.406 52.232 333.926 52.128 333.574 52.048C333.222 51.952 332.798 51.816 332.302 51.64C331.822 51.448 331.446 51.24 331.174 51.016C330.918 50.792 330.694 50.496 330.502 50.128C330.31 49.744 330.214 49.312 330.214 48.832C330.214 47.696 330.726 46.808 331.75 46.168C332.774 45.528 333.95 45.208 335.278 45.208C336.734 45.208 337.99 45.536 339.046 46.192C340.102 46.832 340.63 47.728 340.63 48.88V49.12H338.854C338.854 48.192 338.51 47.488 337.822 47.008C337.15 46.528 336.286 46.288 335.23 46.288C334.382 46.288 333.63 46.504 332.974 46.936C332.318 47.352 331.99 47.928 331.99 48.664C331.99 48.84 332.006 49.008 332.038 49.168C332.07 49.312 332.134 49.448 332.23 49.576C332.326 49.688 332.414 49.792 332.494 49.888C332.574 49.984 332.702 50.072 332.878 50.152C333.07 50.232 333.214 50.304 333.31 50.368C333.422 50.416 333.598 50.472 333.838 50.536C334.094 50.6 334.278 50.648 334.39 50.68C334.518 50.696 334.734 50.736 335.038 50.8C335.342 50.864 335.55 50.912 335.662 50.944C335.806 50.976 336.062 51.032 336.43 51.112C336.814 51.176 337.11 51.232 337.318 51.28C337.526 51.328 337.798 51.4 338.134 51.496C338.486 51.592 338.766 51.696 338.974 51.808C339.182 51.904 339.414 52.04 339.67 52.216C339.926 52.392 340.126 52.584 340.27 52.792C340.414 52.984 340.534 53.224 340.63 53.512C340.726 53.8 340.773 54.12 340.773 54.472C340.773 55.688 340.246 56.624 339.19 57.28C338.134 57.92 336.886 58.24 335.446 58.24C333.894 58.24 332.598 57.88 331.558 57.16C330.518 56.44 329.998 55.416 329.998 54.088V53.824H331.774C331.774 54.896 332.11 55.72 332.782 56.296C333.454 56.856 334.35 57.136 335.47 57.136ZM346.44 50.968V58H344.664V39.592H346.44V47.752C346.808 47.016 347.408 46.408 348.24 45.928C349.072 45.448 349.976 45.208 350.952 45.208C352.664 45.208 354.016 45.712 355.008 46.72C356 47.712 356.496 49.072 356.496 50.8V58H354.72V50.896C354.72 49.536 354.36 48.464 353.64 47.68C352.92 46.88 351.904 46.48 350.592 46.48C349.44 46.48 348.456 46.912 347.64 47.776C346.84 48.64 346.44 49.704 346.44 50.968Z" fill="#1A232C"/>
</svg>
