<svg xmlns="http://www.w3.org/2000/svg" width="81" height="81" fill="none"><rect width="69" height="69" x="6" y="6" fill="#1A232C" stroke="#1A232C" stroke-width="11" rx="34.5"/><mask id="a" width="69" height="69" x="6" y="6" maskUnits="userSpaceOnUse" style="mask-type:alpha"><rect width="64" height="64" x="8.5" y="8.5" fill="#1A232C" stroke="#1A232C" stroke-width="5" rx="32"/></mask><g mask="url(#a)"><path fill="#74B3CE" d="M-3 6h88v23H-3zM-3 52h88v23H-3z"/><path fill="#F9F2E0" d="M-3 29h88v23H-3z"/><path fill="#F6B40E" stroke="#F6B40E" d="m40.5 20 1.904 9.07c.237.043.47.095.702.154l5.239-7.663-1.738 9.248c.166.113.33.231.49.353l7.899-5.158-5.255 8.047c.08.126.158.254.233.383l9.466-1.779-8.12 5.55c.014.09.028.18.04.271L61 40.5l-9.834 2.065-.026.106 8.3 5.674-10.016-1.882 5.572 8.533-8.533-5.572 1.882 10.016-5.751-8.413L40.5 61l-2.094-9.973-5.751 8.413 1.873-9.965-.035-.022-8.489 5.543 5.441-8.333a11.577 11.577 0 0 1-.114-.154l-9.77 1.836 8.035-5.493c-.031-.118-.06-.236-.088-.356L20 40.5l9.32-1.957c.024-.177.051-.353.082-.527l-7.841-5.361 9.186 1.726c.113-.193.232-.382.356-.568l-5.099-7.809 7.734 5.05c.202-.15.409-.292.62-.428l-1.703-9.066 5.195 7.6c.25-.057.502-.106.758-.146L40.5 20Z"/></g></svg>